<svg width="50" height="44" viewBox="0 0 50 44" fill="none" xmlns="http://www.w3.org/2000/svg">
<g clip-path="url(#clip0_218_1945)">
<path d="M21.768 3.01625C22.2922 2.00219 21.8969 0.756095 20.8914 0.231877C19.8859 -0.292342 18.6313 0.10297 18.107 1.10844L10.1062 16.4998H2.75C1.22891 16.4998 0 17.7288 0 19.2498C0 20.7709 1.22891 21.9998 2.75 21.9998L7.21016 39.8319C7.82031 42.2811 10.0203 43.9998 12.5469 43.9998H36.9531C39.4797 43.9998 41.6797 42.2811 42.2898 39.8319L46.75 21.9998C48.2711 21.9998 49.5 20.7709 49.5 19.2498C49.5 17.7288 48.2711 16.4998 46.75 16.4998H39.3937L31.393 1.10844C30.8687 0.10297 29.6227 -0.292342 28.6086 0.231877C27.5945 0.756095 27.2078 2.00219 27.732 3.01625L34.7445 16.4998H14.7555L21.768 3.01625ZM16.5 26.1248V34.3748C16.5 35.1311 15.8813 35.7498 15.125 35.7498C14.3687 35.7498 13.75 35.1311 13.75 34.3748V26.1248C13.75 25.3686 14.3687 24.7498 15.125 24.7498C15.8813 24.7498 16.5 25.3686 16.5 26.1248ZM24.75 24.7498C25.5063 24.7498 26.125 25.3686 26.125 26.1248V34.3748C26.125 35.1311 25.5063 35.7498 24.75 35.7498C23.9937 35.7498 23.375 35.1311 23.375 34.3748V26.1248C23.375 25.3686 23.9937 24.7498 24.75 24.7498ZM35.75 26.1248V34.3748C35.75 35.1311 35.1312 35.7498 34.375 35.7498C33.6188 35.7498 33 35.1311 33 34.3748V26.1248C33 25.3686 33.6188 24.7498 34.375 24.7498C35.1312 24.7498 35.75 25.3686 35.75 26.1248Z" fill="white"/>
</g>
<defs>
<clipPath id="clip0_218_1945">
<rect width="49.5" height="44" fill="white"/>
</clipPath>
</defs>
</svg>
