<svg width="90" height="90" viewBox="0 0 90 90" fill="none" xmlns="http://www.w3.org/2000/svg">
<path d="M6.56251 49.9687C5.50001 49.9687 4.61001 49.61 3.89251 48.8925C3.17501 48.175 2.81501 47.2837 2.81251 46.2187C2.81001 45.1537 3.17001 44.2637 3.89251 43.5487C4.61501 42.8337 5.50501 42.4737 6.56251 42.4687H19.6875C20.75 42.4687 21.6413 42.8287 22.3613 43.5487C23.0813 44.2687 23.44 45.1587 23.4375 46.2187C23.435 47.2787 23.075 48.17 22.3575 48.8925C21.64 49.615 20.75 49.9737 19.6875 49.9687H6.56251ZM26.25 75C23.125 75 20.4688 73.9062 18.2813 71.7187C16.0938 69.5312 15 66.875 15 63.75H10.3125C9.06251 63.75 8.06251 63.2812 7.31251 62.3437C6.56251 61.4062 6.34376 60.3437 6.65626 59.1562L7.50001 55.5937H19.2188C21.8438 55.5937 24.0625 54.6875 25.875 52.875C27.6875 51.0625 28.5938 48.8437 28.5938 46.2187C28.5938 45.4062 28.5 44.6562 28.3125 43.9688C28.125 43.2812 27.875 42.5937 27.5625 41.9062H31.125C33.75 41.9062 35.9688 41 37.7813 39.1875C39.5938 37.375 40.5 35.1562 40.5 32.5312C40.5 29.9062 39.5938 27.6875 37.7813 25.875C35.9688 24.0625 33.75 23.1562 31.125 23.1562H16.875L17.4375 20.9062C17.8125 19.1562 18.6725 17.735 20.0175 16.6425C21.3625 15.55 22.94 15.0025 24.75 15H62.8125C64.0625 15 65.0625 15.4687 65.8125 16.4062C66.5625 17.3437 66.7813 18.4062 66.4688 19.5937L64.0313 30H71.25C72.4375 30 73.5625 30.2662 74.625 30.7987C75.6875 31.3312 76.5625 32.065 77.25 33L84.2813 42.2812C84.9688 43.1562 85.4063 44.11 85.5938 45.1425C85.7813 46.175 85.7813 47.2212 85.5938 48.2812L83.0625 60.75C82.875 61.625 82.4375 62.3437 81.75 62.9062C81.0625 63.4687 80.2813 63.75 79.4063 63.75H75C75 66.875 73.9063 69.5312 71.7188 71.7187C69.5313 73.9062 66.875 75 63.75 75C60.625 75 57.9688 73.9062 55.7813 71.7187C53.5938 69.5312 52.5 66.875 52.5 63.75H37.5C37.5 66.875 36.4063 69.5312 34.2188 71.7187C32.0313 73.9062 29.375 75 26.25 75ZM14.0625 36.2812C13 36.2812 12.11 35.9212 11.3925 35.2012C10.675 34.4812 10.315 33.5912 10.3125 32.5312C10.31 31.4713 10.67 30.5812 11.3925 29.8612C12.115 29.1412 13.005 28.7812 14.0625 28.7812H30.9375C32 28.7812 32.8913 29.1412 33.6113 29.8612C34.3313 30.5812 34.69 31.4713 34.6875 32.5312C34.685 33.5912 34.325 34.4825 33.6075 35.205C32.89 35.9275 32 36.2862 30.9375 36.2812H14.0625ZM26.25 67.5C27.3125 67.5 28.2038 67.14 28.9238 66.42C29.6438 65.7 30.0025 64.81 30 63.75C29.9975 62.69 29.6375 61.8 28.92 61.08C28.2025 60.36 27.3125 60 26.25 60C25.1875 60 24.2975 60.36 23.58 61.08C22.8625 61.8 22.5025 62.69 22.5 63.75C22.4975 64.81 22.8575 65.7012 23.58 66.4237C24.3025 67.1462 25.1925 67.505 26.25 67.5ZM63.75 67.5C64.8125 67.5 65.7038 67.14 66.4238 66.42C67.1438 65.7 67.5025 64.81 67.5 63.75C67.4975 62.69 67.1375 61.8 66.42 61.08C65.7025 60.36 64.8125 60 63.75 60C62.6875 60 61.7975 60.36 61.08 61.08C60.3625 61.8 60.0025 62.69 60 63.75C59.9975 64.81 60.3575 65.7012 61.08 66.4237C61.8025 67.1462 62.6925 67.505 63.75 67.5ZM59.7188 48.75H77.8125L78.1875 46.7812L71.25 37.5H62.3438L59.7188 48.75Z" fill="black"/>
</svg>
