<svg width="90" height="90" viewBox="0 0 90 90" fill="none" xmlns="http://www.w3.org/2000/svg">
<path fill-rule="evenodd" clip-rule="evenodd" d="M43.1249 11.25C44.0434 11.2501 44.9299 11.5873 45.6163 12.1977C46.3027 12.808 46.7412 13.6491 46.8487 14.5613L46.8749 15V41.9625L72.8999 34.8675C73.8591 34.6069 74.8826 34.7377 75.7454 35.2314C76.6082 35.725 77.2397 36.541 77.5012 37.5C79.4617 44.6876 79.1196 52.3089 76.5229 59.2919C73.9262 66.2748 69.2056 72.268 63.0252 76.4283C56.8448 80.5885 49.5157 82.7064 42.0688 82.4841C34.622 82.2618 27.4323 79.7105 21.511 75.189C15.5898 70.6675 11.2351 64.4034 9.05958 57.278C6.88404 50.1526 6.99713 42.5244 9.38294 35.4666C11.7688 28.4088 16.3072 22.2765 22.3599 17.9325C28.4125 13.5886 35.6748 11.2515 43.1249 11.25ZM39.3749 18.9975C32.3096 19.9553 25.8717 23.5605 21.3631 29.0838C16.8544 34.6072 14.6115 41.6366 15.0879 48.7506C15.5642 55.8646 18.7243 62.5322 23.9291 67.4051C29.1339 72.2781 35.995 74.9927 43.1249 75C47.0287 75.0003 50.8899 74.1879 54.4626 72.6145C58.0353 71.041 61.2413 68.7411 63.8766 65.861C66.5119 62.9809 68.5187 59.5837 69.7694 55.8857C71.0201 52.1876 71.4873 48.2697 71.1412 44.3813L71.0062 43.1588L44.1112 50.4938C43.5901 50.6356 43.0445 50.6632 42.5118 50.5747C41.9791 50.4862 41.4718 50.2837 41.0246 49.981C40.5773 49.6784 40.2007 49.2827 39.9206 48.8211C39.6404 48.3594 39.4632 47.8427 39.4012 47.3063L39.3749 46.875V18.9975ZM46.8749 52.5C49.3613 52.5 51.7459 53.4877 53.504 55.2459C55.2622 57.004 56.2499 59.3886 56.2499 61.875C56.2499 64.3614 55.2622 66.746 53.504 68.5041C51.7459 70.2623 49.3613 71.25 46.8749 71.25C44.3885 71.25 42.0039 70.2623 40.2458 68.5041C38.4876 66.746 37.4999 64.3614 37.4999 61.875C37.4999 59.3886 38.4876 57.004 40.2458 55.2459C42.0039 53.4877 44.3885 52.5 46.8749 52.5ZM46.8749 60C46.3776 60 45.9007 60.1976 45.5491 60.5492C45.1974 60.9008 44.9999 61.3777 44.9999 61.875C44.9999 62.3723 45.1974 62.8492 45.5491 63.2008C45.9007 63.5525 46.3776 63.75 46.8749 63.75C47.3722 63.75 47.8491 63.5525 48.2007 63.2008C48.5524 62.8492 48.7499 62.3723 48.7499 61.875C48.7499 61.3777 48.5524 60.9008 48.2007 60.5492C47.8491 60.1976 47.3722 60 46.8749 60ZM63.7499 48.75C64.6684 48.7501 65.5549 49.0873 66.2413 49.6977C66.9277 50.308 67.3662 51.1491 67.4737 52.0613L67.4999 52.5375C67.4988 53.4933 67.1329 54.4126 66.4767 55.1076C65.8206 55.8027 64.9238 56.2209 63.9697 56.2769C63.0155 56.3329 62.076 56.0225 61.343 55.409C60.6101 54.7956 60.139 53.9254 60.0262 52.9763L59.9999 52.5C59.9999 51.5054 60.395 50.5516 61.0983 49.8484C61.8015 49.1451 62.7553 48.75 63.7499 48.75ZM28.1249 45C29.6167 45 31.0475 45.5926 32.1024 46.6475C33.1573 47.7024 33.7499 49.1332 33.7499 50.625C33.7499 52.1168 33.1573 53.5476 32.1024 54.6025C31.0475 55.6574 29.6167 56.25 28.1249 56.25C26.6331 56.25 25.2023 55.6574 24.1474 54.6025C23.0925 53.5476 22.4999 52.1168 22.4999 50.625C22.4999 49.1332 23.0925 47.7024 24.1474 46.6475C25.2023 45.5926 26.6331 45 28.1249 45ZM57.3524 7.665C65.2788 10.1111 72.106 15.2411 76.6612 22.1738C77.1945 22.9861 77.3918 23.9737 77.2113 24.9285C77.0308 25.8834 76.4867 26.7309 75.6936 27.2925L75.3149 27.5288L54.2849 38.9213C53.7062 39.2348 53.0552 39.3905 52.3973 39.3727C51.7394 39.3549 51.0977 39.1643 50.5368 38.82C49.9759 38.4757 49.5155 37.9898 49.2018 37.4112C48.8882 36.8326 48.7323 36.1817 48.7499 35.5238L48.7949 35.055L52.5449 10.68C52.6267 10.1478 52.8221 9.63955 53.1179 9.18966C53.4137 8.73978 53.8029 8.35885 54.259 8.0728C54.7151 7.78674 55.2275 7.60226 55.7613 7.53189C56.2951 7.46152 56.8377 7.50692 57.3524 7.665ZM29.9999 30C30.9184 30.0001 31.8049 30.3373 32.4913 30.9477C33.1777 31.558 33.6162 32.3991 33.7237 33.3113L33.7499 33.7875C33.7488 34.7433 33.3829 35.6626 32.7267 36.3576C32.0706 37.0526 31.1738 37.4709 30.2197 37.5269C29.2655 37.5829 28.326 37.2725 27.593 36.659C26.8601 36.0455 26.389 35.1754 26.2762 34.2263L26.2499 33.75C26.2499 32.7554 26.645 31.8016 27.3483 31.0984C28.0515 30.3951 29.0053 30 29.9999 30ZM59.2424 16.455L57.3562 28.7288L67.8824 23.025C65.4563 20.2948 62.5217 18.0632 59.2424 16.455Z" fill="black"/>
</svg>
