<svg width="32" height="32" viewBox="0 0 32 32" fill="none" xmlns="http://www.w3.org/2000/svg">
<g clip-path="url(#clip0_218_2025)">
<path fill-rule="evenodd" clip-rule="evenodd" d="M15.9997 4.30786C15.8365 4.30786 15.6799 4.3727 15.5645 4.4881C15.4491 4.60351 15.3843 4.76004 15.3843 4.92325V27.0771C15.3843 27.2403 15.4491 27.3968 15.5645 27.5122C15.6799 27.6276 15.8365 27.6925 15.9997 27.6925C16.1629 27.6925 16.3194 27.6276 16.4348 27.5122C16.5502 27.3968 16.615 27.2403 16.615 27.0771V4.92325C16.615 4.76004 16.5502 4.60351 16.4348 4.4881C16.3194 4.3727 16.1629 4.30786 15.9997 4.30786Z" fill="black"/>
<path fill-rule="evenodd" clip-rule="evenodd" d="M15.9998 30.1539C23.8165 30.1539 30.1537 23.8167 30.1537 16.0001C30.1537 8.18348 23.8165 1.84625 15.9998 1.84625C8.18323 1.84625 1.846 8.18348 1.846 16.0001C1.846 23.8167 8.18323 30.1539 15.9998 30.1539ZM15.9998 31.3847C24.4971 31.3847 31.3845 24.4973 31.3845 16.0001C31.3845 7.50286 24.4971 0.615479 15.9998 0.615479C7.50262 0.615479 0.615234 7.50286 0.615234 16.0001C0.615234 24.4973 7.50262 31.3847 15.9998 31.3847Z" fill="black"/>
</g>
<defs>
<clipPath id="clip0_218_2025">
<rect width="32" height="32" fill="white"/>
</clipPath>
</defs>
</svg>
