<svg width="156" height="114" viewBox="0 0 156 114" fill="none" xmlns="http://www.w3.org/2000/svg">
<path d="M89.0544 37.541C85.3522 34.7418 80.6897 33.5279 76.0926 34.1664C71.4954 34.8049 67.3402 37.2434 64.541 40.9456C61.7418 44.6478 60.5279 49.3103 61.1664 53.9074C61.8049 58.5046 64.2434 62.6598 67.9456 65.459L78.5 51.5L89.0544 37.541Z" fill="#FBAE19"/>
<path d="M100.652 42.2458C104.433 44.9383 106.989 49.0223 107.758 53.5994C108.527 58.1765 107.447 62.8717 104.754 66.6522C102.062 70.4326 97.9777 72.9886 93.4006 73.7579C88.8235 74.5272 84.1283 73.4468 80.3478 70.7543L90.5 56.5L100.652 42.2458Z" fill="#FFB700"/>
<path d="M6.23 60.81V36.52C6.23 35.7733 6.41667 35.2133 6.79 34.84C7.21 34.42 7.79333 34.0933 8.54 33.86C9.89333 33.44 11.5267 33.1367 13.44 32.95C15.4 32.7633 17.29 32.67 19.11 32.67C25.0367 32.67 29.3533 33.93 32.06 36.45C34.8133 38.9233 36.19 42.2833 36.19 46.53C36.19 49.4233 35.56 51.9433 34.3 54.09C33.0867 56.2367 31.22 57.8933 28.7 59.06C26.18 60.2267 22.96 60.81 19.04 60.81H6.23ZM9.31 76.35C8.28333 76.35 7.51333 76.14 7 75.72C6.48667 75.3 6.23 74.6467 6.23 73.76V58.08H11.97V75.86C11.69 75.9533 11.3167 76.0467 10.85 76.14C10.3833 76.28 9.87 76.35 9.31 76.35ZM11.9 56.05H18.69C22.4233 56.05 25.3167 55.28 27.37 53.74C29.4233 52.1533 30.45 49.7733 30.45 46.6C30.45 43.4267 29.4467 41.1167 27.44 39.67C25.48 38.1767 22.6567 37.43 18.97 37.43C17.71 37.43 16.45 37.5 15.19 37.64C13.9767 37.7333 12.88 37.8733 11.9 38.06V56.05ZM46.0168 50.59H51.6868V75.86C51.4535 75.9533 51.1035 76.0467 50.6368 76.14C50.1701 76.28 49.6568 76.35 49.0968 76.35C48.0701 76.35 47.3001 76.14 46.7868 75.72C46.2735 75.3 46.0168 74.6467 46.0168 73.76V50.59ZM51.6868 55.28H46.0168V33.58C46.2501 33.4867 46.6001 33.3933 47.0668 33.3C47.5801 33.16 48.1168 33.09 48.6768 33.09C49.7035 33.09 50.4501 33.3 50.9168 33.72C51.4301 34.0933 51.6868 34.7467 51.6868 35.68V55.28Z" fill="white"/>
<path d="M134.86 37.85H134.58C133.88 39.81 133.04 42.1433 132.06 44.85C131.127 47.5567 130.147 50.3567 129.12 53.25C128.14 56.0967 127.207 58.7567 126.32 61.23L125.97 62.28C125.69 63.12 125.34 64.17 124.92 65.43C124.5 66.69 124.057 68.02 123.59 69.42C123.123 70.7733 122.68 72.0567 122.26 73.27C121.84 74.4367 121.513 75.3933 121.28 76.14C120.953 76.28 120.603 76.3733 120.23 76.42C119.903 76.5133 119.483 76.56 118.97 76.56C118.223 76.56 117.547 76.3733 116.94 76C116.38 75.58 116.1 74.9267 116.1 74.04C116.1 73.62 116.17 73.2 116.31 72.78C116.45 72.3133 116.613 71.8233 116.8 71.31C117.36 69.7233 118.037 67.7867 118.83 65.5C119.67 63.2133 120.58 60.7167 121.56 58.01C122.54 55.3033 123.567 52.5267 124.64 49.68C125.713 46.8333 126.763 44.0567 127.79 41.35C128.817 38.6433 129.773 36.17 130.66 33.93C131.033 33.7433 131.593 33.5567 132.34 33.37C133.087 33.1833 133.857 33.09 134.65 33.09C135.583 33.09 136.47 33.23 137.31 33.51C138.197 33.79 138.757 34.2567 138.99 34.91C140.11 37.6167 141.3 40.6967 142.56 44.15C143.867 47.5567 145.173 51.1267 146.48 54.86C147.787 58.5467 149.023 62.14 150.19 65.64C151.403 69.14 152.477 72.3133 153.41 75.16C153.083 75.58 152.64 75.9067 152.08 76.14C151.567 76.42 150.983 76.56 150.33 76.56C149.443 76.56 148.767 76.3733 148.3 76C147.833 75.58 147.437 74.9033 147.11 73.97L143.26 62.56L142.7 60.6C141.767 57.7533 140.787 54.8833 139.76 51.99C138.78 49.0967 137.847 46.4133 136.96 43.94C136.12 41.4667 135.42 39.4367 134.86 37.85ZM123.24 64.66L125.06 59.97H144.59L145.71 64.66H123.24Z" fill="white"/>
<path d="M91 37L65 73.5" stroke="white" stroke-width="6" stroke-linecap="round"/>
<path d="M103 37L77 73.5" stroke="white" stroke-width="6" stroke-linecap="round"/>
<path d="M65 37H90.5" stroke="white" stroke-width="6" stroke-linecap="round"/>
<path d="M77 74H102.5" stroke="white" stroke-width="6" stroke-linecap="round"/>
<circle cx="70.5" cy="44.5" r="2.5" fill="#F73035"/>
<circle cx="67.5" cy="54.5" r="2.5" fill="#F73035"/>
<circle cx="92.5" cy="66.5" r="2.5" fill="#F73035"/>
<circle cx="100.5" cy="65.5" r="1.5" fill="#F73035"/>
<circle cx="74.5" cy="50.5" r="1.5" fill="#F73035"/>
<circle cx="99.5" cy="56.5" r="2.5" fill="#F73035"/>
</svg>
